<?xml version="1.0" encoding="UTF-8" standalone="no"?>
<svg id="svg2" xmlns:rdf="http://www.w3.org/1999/02/22-rdf-syntax-ns#" xmlns="http://www.w3.org/2000/svg" viewBox="0 0 500 500" version="1.1" xmlns:cc="http://creativecommons.org/ns#" xmlns:dc="http://purl.org/dc/elements/1.1/">
 <title id="title3960">Dartlang Community Logo</title>
 <metadata id="metadata7">
  <rdf:RDF>
   <cc:Work rdf:about="">
    <dc:format>image/svg+xml</dc:format>
    <dc:type rdf:resource="http://purl.org/dc/dcmitype/StillImage"/>
    <dc:title>Dartlang Community Logo</dc:title>
    <cc:license rdf:resource="http://creativecommons.org/licenses/by-nc-sa/3.0/"/>
    <dc:subject>
     <rdf:Bag>
      <rdf:li>Dartlang</rdf:li>
      <rdf:li>Community</rdf:li>
     </rdf:Bag>
    </dc:subject>
    <dc:contributor>
     <cc:Agent>
      <dc:title>Guillaume Girou</dc:title>
     </cc:Agent>
    </dc:contributor>
    <dc:rights>
     <cc:Agent>
      <dc:title>Dartlang [FR]</dc:title>
     </cc:Agent>
    </dc:rights>
    <dc:description/>
    <dc:date>2014-07-23</dc:date>
    <dc:creator>
     <cc:Agent>
      <dc:title>Dartlang [FR]</dc:title>
     </cc:Agent>
    </dc:creator>
    <dc:identifier/>
    <dc:source>https://github.com/dartlangfr/community-logo</dc:source>
   </cc:Work>
   <cc:License rdf:about="http://creativecommons.org/licenses/by-nc-sa/3.0/">
    <cc:permits rdf:resource="http://creativecommons.org/ns#Reproduction"/>
    <cc:permits rdf:resource="http://creativecommons.org/ns#Distribution"/>
    <cc:requires rdf:resource="http://creativecommons.org/ns#Notice"/>
    <cc:requires rdf:resource="http://creativecommons.org/ns#Attribution"/>
    <cc:prohibits rdf:resource="http://creativecommons.org/ns#CommercialUse"/>
    <cc:permits rdf:resource="http://creativecommons.org/ns#DerivativeWorks"/>
    <cc:requires rdf:resource="http://creativecommons.org/ns#ShareAlike"/>
   </cc:License>
  </rdf:RDF>
 </metadata>
 <g id="layer1" transform="translate(0,-552.3622)">
  <g id="logo">
   <path id="shield" d="m247.56,1051.6c-2.2451-0.8291-7.0945-2.812-8.776-3.5885-0.56156-0.2593-1.0502-0.4715-1.0857-0.4715-0.0356,0-0.48493-0.1916-0.9985-0.4257-14.373-6.5523-27.183-13.617-40.839-22.524-27.992-18.256-53.838-41.382-75.467-67.525-29.677-35.92-52.227-78.44-66.35-125.16-18.691-61.84-23.55-131.78-14.559-209.55,1.0482-9.0653,3.0833-24.131,3.2873-24.336,0.0558-0.056,1.5919,0,3.4135,0.12524,4.7872,0.32831,20.497,0.46808,26.077,0.23202,13.471-0.5699,24.227-1.5889,37.821-3.5833,32.944-4.8333,69.519-14.594,105.9-28.261,11.084-4.1637,24.91-9.88,32.348-13.374l1.7325-0.81388,0.85245,0.41256c6.0296,2.9182,20.695,9.0528,30.822,12.893,48.837,18.519,95.849,29.577,137.33,32.302,11.929,0.7838,26.408,0.82476,36.513,0.10326,0.93302-0.0666,1.7163-0.10742,1.7407-0.0907,0.0943,0.0647,1.6763,11.456,2.4452,17.606,1.8186,14.546,3.1804,28.915,3.9658,41.844,0.13495,2.2215,0.28499,4.657,0.33343,5.4123,0.62835,9.798,0.93997,23.726,0.83499,37.321-0.0908,11.767-0.18515,15.181-0.6783,24.557-2.403,45.689-10.75,88.46-24.846,127.31-10.372,28.588-24.061,55.471-40.558,79.649-9.5761,14.035-19.347,26.326-31.276,39.34-3.139,3.4247-14.746,15.083-18.111,18.19-19.559,18.064-40.02,33.121-62.074,45.679-9.4922,5.405-21.042,11.108-29.851,14.74-3.209,1.3232-7.0781,2.7371-7.4732,2.731-0.1994,0-1.3077-0.3546-2.4628-0.7812z" fill="#0083c5"/>
   <g id="heraldry" transform="matrix(0.16156079,0,0,0.16156079,-0.05989046,882.00772)">
    <path id="bottom-right" fill="#72c9c1" d="M1545.7,835.7c-0.4-0.37-0.7-300.52-0.7-667v-666.33h529.42,529.42l-7.3275,28.75c-46.534,182.58-112.76,351.67-198.27,506.25-87.769,158.66-195.05,301.58-321.72,428.59-136.69,137.06-298.01,255.34-463.01,339.48-29.567,15.078-63.271,30.923-65.777,30.923-0.7643,0-1.6897-0.3-2.0563-0.6667z"/>
    <path id="top-right" fill="#008ac8" d="m1545-1159.7c0-589.7,0.1651-662.09,1.5111-662.61,0.831-0.3189,6.8611,1.7163,13.4,4.5228,32.568,13.978,111.78,45.13,154.59,60.798,326.79,119.6,637.64,187.41,914,199.38,14.3,0.6197,26.15,1.272,26.333,1.4496,0.5974,0.5791,1.9963,13.414,5.615,51.518,19.472,205.03,22.545,389.74,9.5182,571.97-10.298,144.05-30.544,281.5-60.488,410.64-3.0133,12.995-5.4787,23.793-5.4787,23.996,0,0.2022-238.28,0.3677-529.5,0.3677h-529.5v-662.03z"/>
    <path id="top-left" fill="#26bdb1" d="m491.6-499.39c-4.0548-13.378-21.207-94.033-28.113-132.19-50.276-277.82-59.015-566.69-26.897-889.04,1.9444-19.515,3.6445-35.591,3.7779-35.724,0.13347-0.1335,15.067-0.9312,33.185-1.7728,50.672-2.3536,74.989-4.1756,127.94-9.5863,247.53-25.292,526.78-94.269,805.5-198.96,38.676-14.528,102.94-40.092,134.25-53.407l3.75-1.5946v662.01,662.01h-526.43c-500.5,0-526.46-0.086-526.96-1.75z"/>
    <path id="bottom-left" fill="#0082c4" d="m1533,830.15c-6.325-2.856-24.775-11.819-41-19.917-196.7-98.18-391.3-248.22-542.52-418.37-106.25-119.51-190.54-240.04-264.74-378.56-80.41-150.12-144.79-318.24-187.23-488.94-2.5297-10.175-4.8355-19.288-5.1239-20.25-0.49899-1.6651,25.017-1.75,526.04-1.75h526.57v666.5c0,366.58-0.1125,666.49-0.25,666.49-0.1375-0.01-5.425-2.3484-11.75-5.2043z"/>
   </g>
   <text id="monogram" opacity="0.9" style="letter-spacing:0px;word-spacing:0px;" line-height="125%" font-weight="normal" font-size="6.46243143px" font-style="normal" y="921.81506" x="246.9827" font-family="Sans" xml:space="preserve" fill="#000000"><tspan id="monogram-text" style="writing-mode:lr-tb;text-anchor:middle;text-align:center;" font-weight="900" fill-opacity="0.94117647000000004" font-size="368px" font-style="normal" line-height="125%" font-stretch="normal" font-variant="normal" y="921.81506" x="246.9827" font-family="Source Code Pro Black" fill="#ffffff">D</tspan></text>
  </g>
  <text id="community" style="writing-mode:lr-tb;letter-spacing:0px;text-anchor:end;word-spacing:0px;text-align:end;" font-weight="normal" xml:space="preserve" font-size="6.46243143px" line-height="125%" y="1032.3297" x="502.51425" font-family="Sans" font-style="normal" fill="#333333"><tspan id="community-text" style="writing-mode:lr-tb;text-anchor:end;word-spacing:0px;text-align:end;" font-weight="900" font-variant="normal" font-size="66px" font-style="normal" line-height="125%" font-stretch="normal" dx="0" dy="0" y="1032.3297" x="502.51425" font-family="Source Code Pro Black" fill="#333333">[FR]</tspan></text>
 </g>
</svg>
