<?xml version="1.0" encoding="UTF-8" standalone="no"?>
<!-- Created with Inkscape (http://www.inkscape.org/) -->

<svg
   xmlns:dc="http://purl.org/dc/elements/1.1/"
   xmlns:cc="http://creativecommons.org/ns#"
   xmlns:rdf="http://www.w3.org/1999/02/22-rdf-syntax-ns#"
   xmlns:svg="http://www.w3.org/2000/svg"
   xmlns="http://www.w3.org/2000/svg"
   xmlns:inkscape="http://www.inkscape.org/namespaces/inkscape"
   version="1.1"
   width="158.9375"
   height="160"
   id="svg2"
   xml:space="preserve"><metadata
     id="metadata8"><rdf:RDF><cc:Work
         rdf:about=""><dc:format>image/svg+xml</dc:format><dc:type
           rdf:resource="http://purl.org/dc/dcmitype/StillImage" /></cc:Work></rdf:RDF></metadata><defs
     id="defs6"><clipPath
       id="clipPath18"><path
         d="M 0,1280 0,0 l 1271.52,0 0,1280 L 0,1280 z"
         inkscape:connector-curvature="0"
         id="path20" /></clipPath></defs><g
     transform="matrix(1.25,0,0,-1.25,0,160)"
     id="g10"><g
       transform="scale(0.1,0.1)"
       id="g12"><g
         id="g14"><g
           clip-path="url(#clipPath18)"
           id="g16"><path
             d="m 348.43,931.527 -82.727,82.733 0.352,-598.006 0.984,-27.949 c 0.41,-13.145 2.856,-27.989 6.926,-43.367 l 655.515,-231.149 163.86,72.602 0.06,0.199 -744.97,744.937"
             inkscape:connector-curvature="0"
             id="path22"
             style="fill:#55c5a9;fill-opacity:1;fill-rule:nonzero;stroke:none" /><path
             d="M 1093.34,186.391 929.48,113.789 274.004,344.898 c 12.519,-48.043 40.234,-102.039 70.066,-131.57 L 557.988,0.628906 1033.64,0 l 59.76,186.59 -0.06,-0.199 z m -819.375,158.547 0.039,-0.04 c -0.039,0.274 -0.176,0.575 -0.176,0.848 0,-0.273 0.027,-0.535 0.137,-0.808"
             inkscape:connector-curvature="0"
             id="path24"
             style="fill:#72cfb9;fill-opacity:1;fill-rule:nonzero;stroke:none" /><path
             d="M 265.703,1014.3 10.9258,629.43 C -10.2422,606.82 0.273438,560.18 34.375,525.816 l 147.09,-148.312 92.5,-32.566 c -4.07,15.378 -6.516,30.222 -6.926,43.367 l -0.984,27.949 -0.352,598.006 0,0.04"
             inkscape:connector-curvature="0"
             id="path26"
             style="fill:#3a7fca;fill-opacity:1;fill-rule:nonzero;stroke:none" /><path
             d="m 934.863,1006.58 c -15.383,3.93 -30.129,6.35 -43.508,6.78 l -29.531,1.02 -596.121,-0.08 827.787,-827.71 0.06,0 72.7,164.019 -231.387,655.971"
             inkscape:connector-curvature="0"
             id="path28"
             style="fill:#0f80cc;fill-opacity:1;fill-rule:nonzero;stroke:none" /><path
             d="m 1066.36,936.352 c -30.05,30.289 -83.34,57.812 -131.465,70.198 l 231.355,-655.941 -72.7,-164.019 -0.06,0 177.65,56.738 0.38,487.078 -205.16,205.946 z m -132.251,70.388 c 0.325,-0.08 0.571,-0.16 0.786,-0.19 l -0.032,0.03 c -0.183,0.08 -0.429,0.08 -0.754,0.16"
             inkscape:connector-curvature="0"
             id="path30"
             style="fill:#4ba5e0;fill-opacity:1;fill-rule:nonzero;stroke:none" /><path
             d="M 902.449,1098.52 754.18,1245.7 c -34.285,33.97 -80.95,44.53 -103.496,23.42 l -384.981,-254.82 596.121,0.08 29.531,-1.02 c 13.379,-0.43 28.125,-2.85 43.508,-6.78 l -32.414,91.94"
             inkscape:connector-curvature="0"
             id="path32"
             style="fill:#55c5a9;fill-opacity:1;fill-rule:nonzero;stroke:none" /></g></g></g></g></svg>