<?xml version="1.0" encoding="UTF-8" standalone="no"?>
<svg
   xmlns:dc="http://purl.org/dc/elements/1.1/"
   xmlns:cc="http://creativecommons.org/ns#"
   xmlns:rdf="http://www.w3.org/1999/02/22-rdf-syntax-ns#"
   xmlns:svg="http://www.w3.org/2000/svg"
   xmlns="http://www.w3.org/2000/svg"
   xmlns:sodipodi="http://sodipodi.sourceforge.net/DTD/sodipodi-0.dtd"
   xmlns:inkscape="http://www.inkscape.org/namespaces/inkscape"
   viewBox="0 0 812.5 725"
   height="725"
   width="812.5"
   xml:space="preserve"
   version="1.1"
   id="svg2"
   inkscape:version="0.48.4 r9939"
   sodipodi:docname="docker.svg"><sodipodi:namedview
     pagecolor="#ffffff"
     bordercolor="#666666"
     borderopacity="1"
     objecttolerance="10"
     gridtolerance="10"
     guidetolerance="10"
     inkscape:pageopacity="0"
     inkscape:pageshadow="2"
     inkscape:window-width="1280"
     inkscape:window-height="999"
     id="namedview3030"
     showgrid="false"
     inkscape:zoom="0.32551724"
     inkscape:cx="406.25"
     inkscape:cy="362.5"
     inkscape:window-x="0"
     inkscape:window-y="0"
     inkscape:window-maximized="1"
     inkscape:current-layer="svg2" /><metadata
     id="metadata8"><rdf:RDF><cc:Work
         rdf:about=""><dc:format>image/svg+xml</dc:format><dc:type
           rdf:resource="http://purl.org/dc/dcmitype/StillImage" /></cc:Work></rdf:RDF></metadata><defs
     id="defs6" /><path
     id="path16"
     style="fill:#354750;fill-opacity:1;fill-rule:evenodd;stroke:none"
     d="m 200.13125,516.07625 0,-38.19 c 0,-5.015 3.1375,-9.04875 8.33125,-9.04875 l 1.44,0 c 5.1925,0 8.315,4.03625 8.315,9.04875 l 0,80.4 c 0,19.60625 -9.6875,35.205 -26.565,45.14387 -7.82625,4.605 -16.47375,6.96738 -25.54625,6.96738 l -3.58625,0 c -19.61,0 -35.19125,-9.69388 -45.1445,-26.5625 -4.61913,-7.83125 -6.96538,-16.46625 -6.96538,-25.54875 l 0,-3.58375 c 0,-19.6125 9.69238,-35.2025 26.55738,-45.15875 7.8325,-4.62375 16.4675,-6.9675 25.5525,-6.9675 l 3.58625,0 c 13.27125,0 24.53125,5.14375 34.025,13.5 z m -71.6375,40.415 c 0,14.1625 6.865,24.81 19.275,31.6 5.0175,2.74625 10.46625,4.22125 16.19125,4.22125 13.90125,0 24.21125,-6.5575 31.32375,-18.3375 3.3075,-5.48125 4.8475,-11.475 4.8475,-17.85 0,-12.2775 -5.8125,-21.8575 -15.705,-28.97375 -5.99875,-4.31375 -12.75125,-6.4775 -20.115,-6.4775 -15.15125,0 -26.055,7.65375 -32.6,21.2525 -2.20875,4.5975 -3.2175,9.48 -3.2175,14.565 z m 152.46625,-53.915 2.50625,0 c 20.955,0 36.89,10.165 46.99,28.45625 4.03875,7.3175 6.19875,15.3025 6.19875,23.67 l 0,3.58375 c 0,19.605 -9.6675,35.2275 -26.5725,45.14638 -7.82625,4.58987 -16.47125,6.96487 -25.54125,6.96487 l -3.58125,0 c -19.61,0 -35.19375,-9.69388 -45.145,-26.5625 -4.61875,-7.83125 -6.97,-16.46625 -6.97,-25.54875 l 0,-3.58375 c 0,-19.615 9.72875,-35.15375 26.5525,-45.15375 7.8225,-4.64875 16.4725,-6.9725 25.5625,-6.9725 z m -34.03125,53.915 c 0,13.7475 6.7475,23.86 18.35875,30.97 5.4525,3.34 11.45625,4.85125 17.8275,4.85125 13.58375,0 23.62375,-6.8875 30.6125,-18.3525 3.3325,-5.46625 4.84,-11.47 4.84,-17.835 0,-12.7825 -6.1575,-22.54875 -16.6825,-29.62625 -5.76875,-3.88125 -12.19,-5.825 -19.13625,-5.825 -15.15125,0 -26.055,7.65375 -32.5975,21.2525 -2.21375,4.5975 -3.2225,9.48 -3.2225,14.565 z m 164.9125,-34.3725 c -2.73,-1.27875 -7.8425,-1.70375 -10.79375,-1.81625 -15.11,-0.56875 -26.0425,7.94 -32.45625,21.27 -2.21375,4.5975 -3.225,9.465 -3.225,14.5525 0,15.49125 8.1325,26.33625 21.96,32.9475 5.05125,2.41375 11.5725,2.87375 17.0925,2.87375 4.85625,0 11.71625,-2.97625 16.025,-5.0225 l 0.7475,-0.35375 3.3425,0 0.36875,0.075 c 4.11375,0.855 7.21875,3.4625 7.21875,7.88875 l 0,1.79 c 0,11.00975 -20.12375,13.53275 -27.8025,14.06737 -27.0975,1.8765 -47.36375,-13.00612 -55.09,-38.85362 -1.3425,-4.48625 -1.94625,-8.945 -1.94625,-13.6225 l 0,-3.57875 c 0,-19.6125 9.73125,-35.14625 26.5525,-45.14 7.8225,-4.645 16.4725,-6.9775 25.56,-6.9775 l 3.58375,0 c 9.63875,0 18.5175,2.7375 26.47625,8.17375 l 0.655,0.4525 0.4125,0.68125 c 0.85875,1.425 1.59875,3.07125 1.59875,4.7675 l 0,1.79 c 0,4.61625 -3.45375,7.09875 -7.62375,7.9025 l -0.345,0.0612 -1.06875,0 c -2.7,0 -8.83375,-2.795 -11.2425,-3.92875 z M 470.5025,534.365 c 7.02375,-7.03375 14.075,-14.055 21.20375,-20.97375 1.9875,-1.92875 9.51,-10.0975 12.47125,-10.0975 l 3.24,0 0.36875,0.075 c 4.125,0.8575 7.21625,3.47 7.21625,7.90375 l 0,1.78875 c 0,3.025 -3.5425,6.53875 -5.49625,8.60875 -4.155,4.40375 -8.53,8.665 -12.7825,12.97875 l -21.84875,22.18 c 9.4075,9.42875 18.80625,18.8675 28.1375,28.36875 2.58125,2.6275 5.16375,5.25875 7.705,7.925 0.89875,0.945 2.225,2.12125 2.97875,3.4325 0.80875,1.22625 1.30625,2.61 1.30625,4.08763 l 0,1.87012 -0.105,0.42963 c -1.01625,4.125 -3.635,7.45512 -8.2075,7.45512 l -1.43875,0 c -2.9925,0 -6.37125,-3.38625 -8.4225,-5.31888 -4.22125,-3.98237 -8.30125,-8.16987 -12.44125,-12.23737 l -13.885,-13.63 0,21.78487 c 0,5.01751 -3.14125,9.05025 -8.33,9.05025 l -1.425,0 c -5.19375,0 -8.33,-4.03274 -8.33,-9.05025 l 0,-122.75862 c 0,-5.02 3.13875,-9.03375 8.33,-9.03375 l 1.425,0 c 5.18875,0 8.33,4.01375 8.33,9.03375 l 0,56.1275 z m 225.41,-31.07125 1.795,0 c 5.425,0 9.045,3.655 9.045,9.0475 0,7.4875 -7.1575,9.40375 -13.35125,9.40375 -8.1225,0 -15.87625,4.9175 -21.475,10.4325 -6.9825,6.8825 -10.03875,15.69875 -10.03875,25.38875 l 0,43.78388 c 0,5.02 -3.1325,9.04737 -8.3325,9.04737 l -1.42625,0 c -5.1975,0 -8.33,-4.02737 -8.33,-9.04737 l 0,-46.29638 c 0,-17.77875 8.655,-32.29 23.08125,-42.46875 8.6175,-6.08125 18.48375,-9.29125 29.0325,-9.29125 z m -128.54375,86.7675 c 6.58125,2.2975 14.08625,1.97 20.83875,0.79375 3.4525,-1.4675 12.28625,-5.32 15.535,-4.75625 l 0.5075,0.085 0.46625,0.23 c 1.9825,0.96125 3.8775,2.32125 4.88875,4.33875 2.3675,4.73375 1.23,9.48875 -3.41875,12.17475 l -1.5475,0.894 c -17.15625,9.90237 -35.4025,8.52988 -52.5025,-0.71875 -8.17625,-4.41875 -14.43125,-10.98125 -19.045,-18.97875 l -1.08,-1.87 C 520.99875,563.18125 522.485,543.1175 534.905,524.98 c 4.28875,-6.26875 9.8925,-11.1125 16.445,-14.9 l 2.47875,-1.43 c 16.15625,-9.32625 33.47125,-8.68875 50.065,-0.5025 8.92125,4.40125 16.15,10.96375 21.13125,19.59125 l 0.895,1.55375 c 3.61875,6.26875 -1.06875,11.7325 -5.9075,15.46625 -5.615,4.3325 -11.285,9.545 -16.6675,14.19125 -12,10.35875 -23.9825,20.7425 -35.97625,31.11125 z m -15.5325,-10.90875 c 13.4225,-11.50875 26.8475,-23.025 40.23125,-34.58 4.57375,-3.945 9.59,-8.03875 14.12875,-12.1875 -3.6425,-4.5875 -9.72375,-7.895 -14.8925,-9.8675 -10.43,-3.975 -20.7175,-2.64 -30.28375,2.8825 -12.52375,7.23 -17.85625,18.745 -17.3875,33.07375 0.18375,5.6425 1.7025,11.08 4.6975,15.88125 1.055,1.6925 2.23375,3.28125 3.50625,4.7975"
     inkscape:connector-curvature="0" /><path
     id="path18"
     style="fill:#354750;fill-opacity:1;fill-rule:evenodd;stroke:none"
     d="m 454.23375,216.73875 53.36875,0 0,54.55625 26.985,0 c 12.46125,0 25.27875,-2.22 37.08,-6.21875 5.79875,-1.96625 12.3075,-4.7025 18.0275,-8.14375 -7.53375,-9.83625 -11.38,-22.25625 -12.5125,-34.49875 -1.5375,-16.65125 1.82125,-38.325 13.09125,-51.3575 l 5.61,-6.48875 6.685,5.37375 c 16.83125,13.5225 30.98625,32.4175 33.48125,53.9575 20.26625,-5.96125 44.06,-4.55125 61.92375,5.75875 l 7.32875,4.22875 -3.8575,7.52875 c -15.1075,29.485 -46.69125,38.61875 -77.57,37.0025 -46.20625,115.085 -146.8025,169.57 -268.775,169.57 -63.015,0 -120.83,-23.55625 -153.7525,-79.465 l -0.54,-0.9125 -4.79625,-9.75875 c -11.12875,-24.61 -14.825,-51.57 -12.3175,-78.5075 l 0.7525,-8.06875 45.63625,0 0,-54.55625 53.3675,0 0,-53.37 106.74,0 0,-53.36875 64.04375,0 0,106.73875"
     inkscape:connector-curvature="0" /><path
     id="path20"
     style="fill:#48addf;fill-opacity:1;fill-rule:nonzero;stroke:none"
     d="M 627.14125,236.92125 C 630.72,209.11125 609.9075,187.26625 597,176.895 c -14.87375,17.19625 -17.185,62.265 6.15,81.24 -13.0225,11.5675 -40.465,22.0525 -68.5625,22.0525 l -342.03375,0 c -2.7325,29.33125 2.4175,56.34125 14.1775,79.46125 l 3.89125,7.11625 c 2.46375,4.18125 5.155,8.21625 8.06375,12.10125 0.001,0 0.001,0 0.001,0 14.06125,0.9025 27.02625,1.215 38.8875,0.9525 0.001,0 0.004,0 0.005,0 23.31,-0.51625 42.32875,-3.26625 56.74375,-8.26125 2.14625,-0.74625 4.485,0.3925 5.2275,2.53625 0.74125,2.14375 -0.39375,4.48375 -2.5375,5.2275 -1.91625,0.66375 -3.915,1.285 -5.97875,1.875 -0.002,0.001 -0.005,0.001 -0.008,0.002 -11.35,3.24 -23.52,5.42125 -39.22375,6.39 0.93125,0.015 -0.97125,0.14 -0.97625,0.14125 -0.53375,0.0325 -1.20625,0.10875 -1.7425,0.13875 -6.18,0.34625 -12.85125,0.41875 -19.67125,0.41875 -7.45875,0 -14.805,-0.14125 -23.0175,-0.5575 l -0.21,0.13875 C 254.685,419.9 299.245,439.11125 355.1,439.11125 c 118.2125,0 218.48125,-52.4025 262.88125,-170.04875 31.50125,3.2325 61.775,-4.8 75.54625,-31.6825 -21.93625,-12.65875 -50.14375,-8.6225 -66.38625,-0.45875"
     inkscape:connector-curvature="0" /><path
     id="path22"
     style="fill:#56beee;fill-opacity:1;fill-rule:nonzero;stroke:none"
     d="M 627.14125,236.92125 C 630.72,209.11125 609.9075,187.26625 597,176.895 c -14.87375,17.19625 -17.185,62.265 6.15,81.24 -13.0225,11.5675 -40.465,22.0525 -68.5625,22.0525 l -321.78,0 c -1.39625,44.92 15.27375,79.0175 44.7675,99.63125 0.001,0 0.004,0 0.005,0 23.31,-0.51625 42.32875,-3.26625 56.74375,-8.26125 2.14625,-0.74625 4.485,0.3925 5.2275,2.53625 0.74125,2.14375 -0.39375,4.48375 -2.5375,5.2275 -1.91625,0.66375 -3.915,1.285 -5.97875,1.875 -0.002,0.001 -0.005,0.001 -0.008,0.002 -11.35,3.24 -24.56625,5.70125 -40.27,6.67 -0.004,0 -0.38,-0.36375 -0.385,-0.3625 40.23,20.63625 98.565,20.5625 165.445,-5.12875 74.9925,-28.80875 144.77375,-83.69625 193.465,-146.47375 -0.735,0.33125 -1.45,0.67125 -2.14125,1.0175"
     inkscape:connector-curvature="0" /><path
     id="path24"
     style="fill:#388bbd;fill-opacity:1;fill-rule:nonzero;stroke:none"
     d="m 193.19375,315.825 c 2.12625,15.71125 6.72125,30.4225 13.5375,43.82375 l 3.89125,7.11625 c 2.46375,4.18125 5.155,8.21625 8.065,12.10125 14.06375,0.9025 27.03,1.215 38.8925,0.9525 23.31,-0.51625 42.32875,-3.26625 56.74375,-8.26125 2.14625,-0.74625 4.485,0.3925 5.2275,2.53625 0.74125,2.14375 -0.39375,4.48375 -2.5375,5.2275 -1.91625,0.66375 -3.915,1.285 -5.97875,1.875 -0.002,0.001 -0.005,0.001 -0.008,0.002 -11.35,3.24 -24.49625,5.56125 -40.2,6.53125 -0.53875,0.0325 -1.47875,0.0387 -2.0225,0.0687 -6.1775,0.3475 -12.78,0.55875 -19.60125,0.55875 -7.4575,0 -15.08375,-0.1425 -23.295,-0.55875 28.4975,32.03125 73.33625,51.3125 129.19125,51.3125 101.20125,0 189.24875,-38.4125 240.35125,-123.28625 l -402.2575,0"
     inkscape:connector-curvature="0" /><path
     id="path26"
     style="fill:#409ccb;fill-opacity:1;fill-rule:nonzero;stroke:none"
     d="m 215.88625,315.825 c 6.05,27.58625 20.58875,49.24375 41.69375,63.99375 23.31,-0.51625 42.32875,-3.26625 56.74375,-8.26125 2.14625,-0.74625 4.485,0.3925 5.2275,2.53625 0.74125,2.14375 -0.39375,4.48375 -2.5375,5.2275 -1.91625,0.66375 -3.915,1.285 -5.97875,1.875 -0.002,0.001 -0.005,0.001 -0.008,0.002 -11.35,3.24 -24.775,5.56125 -40.47875,6.53125 40.2275,20.6325 98.39375,20.33625 165.26875,-5.3525 40.4575,-15.54375 79.395,-38.68375 114.32875,-66.5525 l -334.26,0"
     inkscape:connector-curvature="0" /><path
     id="path28"
     style="fill:#46b0d7;fill-opacity:1;fill-rule:evenodd;stroke:none"
     d="m 238.9775,225.6325 46.2525,0 0,46.255 -46.2525,0 0,-46.255 z m 3.8525,3.855 3.65,0 0,38.5475 -3.65,0 0,-38.5475 z m 6.8625,0 3.79625,0 0,38.5475 -3.79625,0 0,-38.5475 z m 7.00625,0 3.79625,0 0,38.5475 -3.79625,0 0,-38.5475 z m 7.01,0 3.79625,0 0,38.5475 -3.79625,0 0,-38.5475 z m 7.00875,0 3.79625,0 0,38.5475 -3.79625,0 0,-38.5475 z m 7.0075,0 3.6525,0 0,38.5475 -3.6525,0 0,-38.5475"
     inkscape:connector-curvature="0" /><path
     id="path30"
     style="fill:#46b0d7;fill-opacity:1;fill-rule:evenodd;stroke:none"
     d="m 292.34375,172.26375 46.2575,0 0,46.2525 -46.2575,0 0,-46.2525 z m 3.8575,3.855 3.6475,0 0,38.54375 -3.6475,0 0,-38.54375 z m 6.8625,0 3.79375,0 0,38.54375 -3.79375,0 0,-38.54375 z m 7.005,0 3.79625,0 0,38.54375 -3.79625,0 0,-38.54375 z m 7.00875,0 3.79625,0 0,38.54375 -3.79625,0 0,-38.54375 z m 7.01,0 3.79625,0 0,38.54375 -3.79625,0 0,-38.54375 z m 7.00625,0 3.655,0 0,38.54375 -3.655,0 0,-38.54375"
     inkscape:connector-curvature="0" /><path
     id="path32"
     style="fill:#58c8f1;fill-opacity:1;fill-rule:evenodd;stroke:none"
     d="m 292.34375,225.6325 46.2575,0 0,46.255 -46.2575,0 0,-46.255 z m 3.8575,3.855 3.6475,0 0,38.5475 -3.6475,0 0,-38.5475 z m 6.8625,0 3.79375,0 0,38.5475 -3.79375,0 0,-38.5475 z m 7.005,0 3.79625,0 0,38.5475 -3.79625,0 0,-38.5475 z m 7.00875,0 3.79625,0 0,38.5475 -3.79625,0 0,-38.5475 z m 7.01,0 3.79625,0 0,38.5475 -3.79625,0 0,-38.5475 z m 7.00625,0 3.655,0 0,38.5475 -3.655,0 0,-38.5475"
     inkscape:connector-curvature="0" /><path
     id="path34"
     style="fill:#46b0d7;fill-opacity:1;fill-rule:evenodd;stroke:none"
     d="m 345.715,225.6325 46.255,0 0,46.255 -46.255,0 0,-46.255 z m 3.855,3.855 3.6475,0 0,38.5475 -3.6475,0 0,-38.5475 z m 6.86125,0 3.79625,0 0,38.5475 -3.79625,0 0,-38.5475 z m 7.00875,0 3.79625,0 0,38.5475 -3.79625,0 0,-38.5475 z m 7.00875,0 3.79625,0 0,38.5475 -3.79625,0 0,-38.5475 z m 7.0075,0 3.79875,0 0,38.5475 -3.79875,0 0,-38.5475 z m 7.00875,0 3.65,0 0,38.5475 -3.65,0 0,-38.5475"
     inkscape:connector-curvature="0" /><path
     id="path36"
     style="fill:#58c8f1;fill-opacity:1;fill-rule:evenodd;stroke:none"
     d="m 345.715,172.26375 46.255,0 0,46.2525 -46.255,0 0,-46.2525 z m 3.855,3.855 3.6475,0 0,38.54375 -3.6475,0 0,-38.54375 z m 6.86125,0 3.79625,0 0,38.54375 -3.79625,0 0,-38.54375 z m 7.00875,0 3.79625,0 0,38.54375 -3.79625,0 0,-38.54375 z m 7.00875,0 3.79625,0 0,38.54375 -3.79625,0 0,-38.54375 z m 7.0075,0 3.79875,0 0,38.54375 -3.79875,0 0,-38.54375 z m 7.00875,0 3.65,0 0,38.54375 -3.65,0 0,-38.54375"
     inkscape:connector-curvature="0" /><path
     id="path38"
     style="fill:#58c8f1;fill-opacity:1;fill-rule:evenodd;stroke:none"
     d="m 399.085,225.6325 46.25375,0 0,46.255 -46.25375,0 0,-46.255 z m 3.855,3.855 3.64875,0 0,38.5475 -3.64875,0 0,-38.5475 z m 6.8625,0 3.79625,0 0,38.5475 -3.79625,0 0,-38.5475 z m 7.00625,0 3.79625,0 0,38.5475 -3.79625,0 0,-38.5475 z m 7.01,0 3.79625,0 0,38.5475 -3.79625,0 0,-38.5475 z m 7.00875,0 3.79625,0 0,38.5475 -3.79625,0 0,-38.5475 z m 7.0075,0 3.65125,0 0,38.5475 -3.65125,0 0,-38.5475"
     inkscape:connector-curvature="0" /><path
     id="path40"
     style="fill:#46b0d7;fill-opacity:1;fill-rule:evenodd;stroke:none"
     d="m 399.085,172.26375 46.25375,0 0,46.2525 -46.25375,0 0,-46.2525 z m 3.855,3.855 3.64875,0 0,38.54375 -3.64875,0 0,-38.54375 z m 6.8625,0 3.79625,0 0,38.54375 -3.79625,0 0,-38.54375 z m 7.00625,0 3.79625,0 0,38.54375 -3.79625,0 0,-38.54375 z m 7.01,0 3.79625,0 0,38.54375 -3.79625,0 0,-38.54375 z m 7.00875,0 3.79625,0 0,38.54375 -3.79625,0 0,-38.54375 z m 7.0075,0 3.65125,0 0,38.54375 -3.65125,0 0,-38.54375"
     inkscape:connector-curvature="0" /><path
     id="path42"
     style="fill:#58c8f1;fill-opacity:1;fill-rule:evenodd;stroke:none"
     d="m 399.085,118.89375 46.25375,0 0,46.255 -46.25375,0 0,-46.255 z m 3.855,3.8525 3.64875,0 0,38.5475 -3.64875,0 0,-38.5475 z m 6.8625,0 3.79625,0 0,38.5475 -3.79625,0 0,-38.5475 z m 7.00625,0 3.79625,0 0,38.5475 -3.79625,0 0,-38.5475 z m 7.01,0 3.79625,0 0,38.5475 -3.79625,0 0,-38.5475 z m 7.00875,0 3.79625,0 0,38.5475 -3.79625,0 0,-38.5475 z m 7.0075,0 3.65125,0 0,38.5475 -3.65125,0 0,-38.5475"
     inkscape:connector-curvature="0" /><path
     id="path44"
     style="fill:#46b0d7;fill-opacity:1;fill-rule:evenodd;stroke:none"
     d="m 452.45375,225.6325 46.255,0 0,46.255 -46.255,0 0,-46.255 z m 3.8525,3.855 3.6525,0 0,38.5475 -3.6525,0 0,-38.5475 z m 6.8625,0 3.79625,0 0,38.5475 -3.79625,0 0,-38.5475 z m 7.01,0 3.79625,0 0,38.5475 -3.79625,0 0,-38.5475 z m 7.00625,0 3.79625,0 0,38.5475 -3.79625,0 0,-38.5475 z m 7.01125,0 3.795,0 0,38.5475 -3.795,0 0,-38.5475 z m 7.0075,0 3.65,0 0,38.5475 -3.65,0 0,-38.5475"
     inkscape:connector-curvature="0" /><path
     id="path46"
     style="fill:#d7f2f2;fill-opacity:1;fill-rule:evenodd;stroke:none"
     d="m 335.705,346.88 c 7.04625,0 12.75875,5.715 12.75875,12.76125 0,7.04625 -5.7125,12.75875 -12.75875,12.75875 -7.0475,0 -12.76125,-5.7125 -12.76125,-12.75875 0,-7.04625 5.71375,-12.76125 12.76125,-12.76125"
     inkscape:connector-curvature="0" /><path
     id="path48"
     style="fill:#354750;fill-opacity:1;fill-rule:evenodd;stroke:none"
     d="m 335.705,350.5 c 1.1675,0 2.28125,0.22 3.30875,0.61875 -1.11375,0.64375 -1.8675,1.85 -1.8675,3.23 0,2.06 1.67,3.7275 3.73,3.7275 1.41125,0 2.6375,-0.78375 3.27125,-1.94125 0.4475,1.07875 0.69625,2.26375 0.69625,3.50625 0,5.04625 -4.09125,9.1375 -9.13875,9.1375 -5.04625,0 -9.14,-4.09125 -9.14,-9.1375 0,-5.04875 4.09375,-9.14125 9.14,-9.14125"
     inkscape:connector-curvature="0" /><path
     id="path50"
     style="fill:#354750;fill-opacity:1;fill-rule:evenodd;stroke:none"
     d="m 110,320.4375 593.59625,0 c -12.925,-3.27875 -40.89375,-7.7075 -36.28125,-24.64625 -23.50125,27.195 -80.17875,19.07875 -94.4825,5.66875 -15.92875,23.1025 -108.6575,14.32125 -115.125,-3.67625 -19.96875,23.435 -81.84625,23.435 -101.81625,0 -6.47,17.9975 -99.1975,26.77875 -115.1275,3.67625 -14.30375,13.41 -70.97625,21.52625 -94.48,-5.66875 4.6125,16.93875 -23.3565,21.3675 -36.28375,24.64625"
     inkscape:connector-curvature="0" /><path
     id="path52"
     style="fill:#c2e1e1;fill-opacity:1;fill-rule:nonzero;stroke:none"
     d="m 369.62625,438.835 c -31.60125,-14.99625 -48.9475,-35.38125 -58.59875,-57.63625 -11.7375,3.35125 -25.84875,5.4925 -42.24375,6.4125 -6.17625,0.34625 -12.6725,0.52375 -19.49125,0.52375 -7.86,0 -16.1425,-0.2325 -24.8375,-0.69375 28.98,28.9625 64.6325,51.2625 130.645,51.67 4.87375,0 9.7125,-0.095 14.52625,-0.27625"
     inkscape:connector-curvature="0" /><path
     id="path54"
     style="fill:#d7f2f2;fill-opacity:1;fill-rule:nonzero;stroke:none"
     d="m 322.76625,401.73375 c -4.3725,-5.935 -8.61375,-13.39375 -11.73125,-20.5375 -11.74,3.3525 -25.85375,5.495 -42.25125,6.415 11.2625,6.11375 27.37125,11.77875 53.9825,14.1225"
     inkscape:connector-curvature="0" /></svg>